<mxfile host="app.diagrams.net" agent="Mozilla/5.0 (Windows NT 10.0; Win64; x64) AppleWebKit/537.36 (KHTML, like Gecko) Chrome/129.0.0.0 Safari/537.36" version="24.7.17">
  <diagram name="1 oldal" id="8sAiEV5wL0g7a3TPgbcc">
    <mxGraphModel dx="1434" dy="780" grid="1" gridSize="10" guides="1" tooltips="1" connect="1" arrows="1" fold="1" page="1" pageScale="1" pageWidth="827" pageHeight="1169" math="0" shadow="0">
      <root>
        <mxCell id="0" />
        <mxCell id="1" parent="0" />
        <mxCell id="zKmIkn13PFEM0CH2Z-7X-6" value="" style="rounded=0;whiteSpace=wrap;html=1;fillColor=#1ba1e2;fontColor=#ffffff;strokeColor=#006EAF;" vertex="1" parent="1">
          <mxGeometry x="470" y="350" width="260" height="270" as="geometry" />
        </mxCell>
        <mxCell id="zKmIkn13PFEM0CH2Z-7X-1" value="" style="rounded=0;whiteSpace=wrap;html=1;fillColor=#0050ef;fontColor=#ffffff;strokeColor=#001DBC;" vertex="1" parent="1">
          <mxGeometry x="10" y="10" width="810" height="250" as="geometry" />
        </mxCell>
        <mxCell id="zKmIkn13PFEM0CH2Z-7X-3" value="" style="rounded=0;whiteSpace=wrap;html=1;fillColor=#60a917;fontColor=#ffffff;strokeColor=#2D7600;" vertex="1" parent="1">
          <mxGeometry x="9" y="280" width="810" height="50" as="geometry" />
        </mxCell>
        <mxCell id="zKmIkn13PFEM0CH2Z-7X-4" value="" style="rounded=0;whiteSpace=wrap;html=1;fillColor=#1ba1e2;fontColor=#ffffff;strokeColor=#006EAF;" vertex="1" parent="1">
          <mxGeometry x="110" y="350" width="260" height="270" as="geometry" />
        </mxCell>
        <mxCell id="zKmIkn13PFEM0CH2Z-7X-7" value="" style="rounded=0;whiteSpace=wrap;html=1;fillColor=#6a00ff;fontColor=#ffffff;strokeColor=#3700CC;" vertex="1" parent="1">
          <mxGeometry x="9" y="650" width="581" height="190" as="geometry" />
        </mxCell>
        <mxCell id="zKmIkn13PFEM0CH2Z-7X-8" value="" style="rounded=0;whiteSpace=wrap;html=1;fillColor=#a20025;fontColor=#ffffff;strokeColor=#6F0000;" vertex="1" parent="1">
          <mxGeometry x="610" y="650" width="200" height="190" as="geometry" />
        </mxCell>
        <mxCell id="zKmIkn13PFEM0CH2Z-7X-9" value="Navbar" style="text;strokeColor=none;fillColor=none;html=1;fontSize=24;fontStyle=1;verticalAlign=middle;align=center;" vertex="1" parent="1">
          <mxGeometry x="364" y="285" width="100" height="40" as="geometry" />
        </mxCell>
        <mxCell id="zKmIkn13PFEM0CH2Z-7X-10" value="Kép" style="text;strokeColor=none;fillColor=none;html=1;fontSize=24;fontStyle=1;verticalAlign=middle;align=center;" vertex="1" parent="1">
          <mxGeometry x="660" y="725" width="100" height="40" as="geometry" />
        </mxCell>
        <mxCell id="zKmIkn13PFEM0CH2Z-7X-11" value="Szöveg" style="text;strokeColor=none;fillColor=none;html=1;fontSize=24;fontStyle=1;verticalAlign=middle;align=center;" vertex="1" parent="1">
          <mxGeometry x="249.5" y="725" width="100" height="40" as="geometry" />
        </mxCell>
        <mxCell id="zKmIkn13PFEM0CH2Z-7X-12" value="Kártya1" style="text;strokeColor=none;fillColor=none;html=1;fontSize=24;fontStyle=1;verticalAlign=middle;align=center;" vertex="1" parent="1">
          <mxGeometry x="190" y="460" width="100" height="40" as="geometry" />
        </mxCell>
        <mxCell id="zKmIkn13PFEM0CH2Z-7X-13" value="Kártya2" style="text;strokeColor=none;fillColor=none;html=1;fontSize=24;fontStyle=1;verticalAlign=middle;align=center;" vertex="1" parent="1">
          <mxGeometry x="550" y="460" width="100" height="40" as="geometry" />
        </mxCell>
        <mxCell id="zKmIkn13PFEM0CH2Z-7X-14" value="Slider" style="text;strokeColor=none;fillColor=none;html=1;fontSize=24;fontStyle=1;verticalAlign=middle;align=center;" vertex="1" parent="1">
          <mxGeometry x="365" y="115" width="100" height="40" as="geometry" />
        </mxCell>
      </root>
    </mxGraphModel>
  </diagram>
</mxfile>
